<?xml version="1.0" encoding="UTF-8" standalone="no"?>
<!DOCTYPE svg PUBLIC "-//W3C//DTD SVG 1.1//EN" "http://www.w3.org/Graphics/SVG/1.1/DTD/svg11.dtd">
<svg width="100%" height="100%" viewBox="0 0 1080 1080" version="1.1" xmlns="http://www.w3.org/2000/svg" xmlns:xlink="http://www.w3.org/1999/xlink" xml:space="preserve" xmlns:serif="http://www.serif.com/" style="fill-rule:evenodd;clip-rule:evenodd;stroke-linejoin:round;stroke-miterlimit:2;">
    <g transform="matrix(2.40187,0,0,2.40187,-498.379,-161.944)">
        <path d="M364.076,403.297L565.019,403.345C563.618,420.22 550.988,433.513 540.45,440.298C524.715,450.429 508.078,448.306 487.038,448.306C478.894,448.306 369.144,448.947 364.14,448.126L364.076,403.297L364.076,403.297ZM323.998,281.77C301.377,284.781 283.9,273.415 273.814,262.888C258.06,246.445 258.612,229.898 258.612,208.898C258.612,186.624 257.958,172.785 274.323,155.421C285.776,143.269 299.274,135.455 324.018,136.371L323.997,281.771L323.998,281.77ZM431.553,281.295C429.775,283.244 418.146,282.273 414.834,282.273C404.847,282.273 368.92,282.968 364.112,282.028C363.152,276.474 363.569,138.575 364.185,136.313C366.891,135.499 429.186,136.005 437.662,136.005C458.243,136.005 486.894,135.448 507.228,136.012L511.211,136.64C523.596,135.947 537.503,144.466 544.309,150.003C551.273,155.67 562.115,169.618 562.704,177.818C549.329,178.133 512.951,177.101 504.025,177.971C494.606,178.889 490.49,183.389 486.642,189.897C479.36,202.211 434.384,275.108 431.553,281.295L431.553,281.295ZM516.713,218C551.944,217.878 587.188,218.079 622.421,218.002C631.236,217.982 637.828,215.894 641.8,210.735C645.947,205.349 647.938,197.366 644.741,190.292C637.54,174.357 623.627,178.351 604.643,177.844C601.19,167.011 602.393,165.089 596.33,152.12C586.886,131.918 565.698,111.062 543.947,103.049C522.345,95.091 508.083,96.17 483.321,96.17L348.47,96.17C326.895,96.17 305.162,94.529 285.8,101.062C256.372,110.992 228.393,138.429 221.156,171.274C218.682,182.498 218.477,190.516 218.477,202.524C218.475,234.281 217.329,256.694 238.704,283.674C247.721,295.056 260.73,306.497 276.324,313.52C296.617,322.661 310.791,322.122 335.197,322.122L470.049,322.122C488.654,322.122 518.101,319.945 533.205,326.334C546.932,332.141 561.121,345.721 564.207,363.067C537.097,363.618 509.433,363.11 482.26,363.11L360.15,363.11C345.227,363.11 335.135,361.295 328.005,371.171C323.545,377.349 324.37,379.39 324.107,387.932C323.803,397.818 324.551,443.737 323.819,448.221C297.003,450.431 273.204,436.09 263.182,412.724C257.523,399.529 259.912,394.927 258.21,385.773C254.87,367.808 229.947,363.192 220.681,380.632C214.105,393.008 222.83,422.066 227.94,432.591C241.802,461.143 268.535,481.798 301.379,487.252C311.372,488.912 322.165,488.454 332.543,488.454L492.348,488.454C513.383,488.454 530.864,489.118 548.952,481.25C575.64,469.641 599.906,444.405 605.121,409.581C607.57,393.229 606.682,364.296 602.677,349.277C594.775,319.641 567.909,293.597 538.403,285.512C518.463,280.048 499.253,282.747 478.202,281.94C478.388,280.964 514.26,221.093 516.713,218Z" style="fill:rgb(98,181,229);stroke:rgb(98,181,229);stroke-width:0.42px;"/>
    </g>
</svg>
