<?xml version="1.0" encoding="UTF-8" standalone="no"?>
<!DOCTYPE svg PUBLIC "-//W3C//DTD SVG 1.1//EN" "http://www.w3.org/Graphics/SVG/1.1/DTD/svg11.dtd">
<svg width="100%" height="100%" viewBox="0 0 2880 540" version="1.1" xmlns="http://www.w3.org/2000/svg" xmlns:xlink="http://www.w3.org/1999/xlink" xml:space="preserve" xmlns:serif="http://www.serif.com/" style="fill-rule:evenodd;clip-rule:evenodd;stroke-linejoin:round;stroke-miterlimit:2;">
    <g transform="matrix(2.46043,0,0,2.46043,-238.268,-487.622)">
        <g transform="matrix(2,0,0,2,-112.855,-204.478)">
            <path d="M281.557,212.646C290.691,212.733 305.799,211.402 313.318,214.787C329.727,222.175 331.121,247.675 312.892,255.702C305.136,259.117 290.821,257.286 281.381,257.648L281.557,212.645L281.557,212.646ZM273.4,213.143L273.395,298.699C273.379,301.623 272.945,305.16 274.776,306.685C277.163,308.673 280.263,307.383 281.07,305.064C281.808,302.949 281.332,271.359 281.346,265.62L306.887,265.432L321.324,288.603C323.744,292.465 326.214,296.265 328.752,300.361C331.843,305.349 332.559,309.676 339.199,305.846C339.575,301.7 336.847,298.348 334.226,294.304L315.155,263.573C323.036,259.222 329.706,254.28 332.687,244.503C338.585,225.157 325.878,204.817 301.932,204.774C274.388,204.725 273.398,202.149 273.398,213.142L273.4,213.143Z" style="fill:rgb(98,181,229);"/>
        </g>
        <g transform="matrix(2,0,0,2,-112.855,-204.478)">
            <path d="M673.931,252.223L618.371,252.161C618.949,239.139 618.364,225.373 618.446,212.517C618.467,209.302 618.746,205.57 615.558,204.926C611.549,204.116 610.591,206.646 610.48,209.992C609.945,226.264 610.513,252.509 610.513,269.558L610.497,299.321C610.459,304.18 610.122,303.841 612.264,307.457C620.519,308.264 618.426,302.664 618.426,286.917C618.426,278.351 618.785,268.979 618.362,260.513L673.873,260.279L673.863,299.947C673.837,304.018 674.238,310.046 679.774,307.174C683.233,305.379 681.817,287.592 681.817,282.578L681.818,216.243C681.819,211.717 682.795,206.714 679.353,205.139C674.845,203.075 673.858,207.422 673.852,211.254L673.931,252.224L673.931,252.223Z" style="fill:rgb(98,181,229);"/>
        </g>
        <g transform="matrix(2,0,0,2,-112.855,-204.478)">
            <path d="M559.178,205.425C522.095,210.661 499.15,254.851 528.679,290.781C543.237,308.496 573.765,312.902 593.487,300.114C595.104,299.066 604.013,294.464 598.58,290.272C594.149,286.854 589.779,296.902 573.426,299.264C550.479,302.576 534.687,289.572 527.452,275.275C518.655,257.891 523.367,236.24 538.374,223.288C553.671,210.086 575.898,209.246 591.268,220.155C592.887,221.305 594.493,223.263 597.03,223.124C599.678,222.98 606.139,218.396 589.536,210.106C581.064,205.876 570.007,203.895 559.178,205.424L559.178,205.425Z" style="fill:rgb(98,181,229);"/>
        </g>
        <g transform="matrix(2,0,0,2,-112.855,-204.478)">
            <path d="M182.642,307.457C189.253,308.151 188.581,304.533 190.635,299.604C194.767,289.68 219.908,223.192 221.856,220.062L254.677,304.41C256.853,309.726 261.442,307.762 262.381,304.983C263.27,302.354 243.666,254.082 241.592,248.701C236.69,235.979 232.055,223.364 227.047,211.154C225.754,208.004 225.091,203.396 220.308,205.109C217.746,206.028 216.744,210.699 215.619,213.621L181.095,302.587C180.574,305.871 181.304,305.263 182.642,307.457L182.642,307.457Z" style="fill:rgb(98,181,229);"/>
        </g>
        <g transform="matrix(2,0,0,2,-112.855,-204.478)">
            <path d="M113.872,288.004C111.105,292.987 114.558,295.733 117.404,298.482C120.259,301.241 122.784,303.311 127.259,305.377C135.698,309.275 147.104,307.683 154.284,303.566C168.229,295.573 175.398,275.62 163.119,258.971C150.677,242.101 126.579,252.007 125.778,230.512C125.422,220.913 132.623,213.945 141.347,213.003C155.966,211.424 158.133,228.259 163.971,222.099C167.368,218.514 161.718,213.461 160.014,211.843C148.695,201.088 132.508,203.97 124.629,212.517C115.957,221.926 115.204,237.451 124.832,247.652C127.122,250.078 131.257,252.173 135.585,253.678C146.524,257.481 151.296,255.974 157.389,264.717C162.623,272.228 162.907,282.357 157.496,290.043C153.25,296.07 146.467,301.079 135.196,299.309C119.825,296.895 122.917,285.424 113.873,288.004L113.872,288.004Z" style="fill:rgb(98,181,229);"/>
        </g>
        <g transform="matrix(2,0,0,2,-112.855,-204.478)">
            <path d="M379.633,212.915L379.769,298.696C379.769,302.66 379.085,308.302 384.227,307.701C388.808,307.166 387.677,301.013 387.67,296.836C387.648,284.546 387.196,219.369 387.836,212.8C395.739,212.08 406.574,212.672 414.779,212.698C418.614,212.709 424.034,211.936 421.633,206.952C420.046,203.66 413.226,204.779 409.184,204.779L350.289,204.741C346.315,204.743 344.091,208.02 346.236,210.962C347.987,213.363 353.156,212.73 356.488,212.7C362.12,212.648 374.765,212.033 379.633,212.915Z" style="fill:rgb(98,181,229);"/>
        </g>
        <g transform="matrix(2,0,0,2,-112.855,-204.478)">
            <path d="M435.191,300.348C432.465,301.776 432.326,305.246 434.519,306.881C436.742,308.537 460.065,307.678 463.741,307.678C469.209,307.678 499.859,308.502 502.444,307.102C504.601,305.933 505.085,302.118 502.778,300.565C500.4,298.966 436.656,299.58 435.191,300.347L435.191,300.348Z" style="fill:rgb(98,181,229);"/>
        </g>
        <g transform="matrix(2,0,0,2,-112.855,-204.478)">
            <path d="M439.563,212.676L495.358,212.676C499.531,212.676 501.63,213.281 503.676,210.845C505.437,206.829 503.199,204.875 499.136,204.741C483.44,204.225 459.511,204.869 442.661,204.777C439.043,204.757 434.65,204.181 433.461,207.211C431.599,211.949 435.762,212.676 439.563,212.676Z" style="fill:rgb(98,181,229);"/>
        </g>
        <g transform="matrix(2,0,0,2,-112.855,-204.478)">
            <path d="M441.25,252.509C437.333,253.797 436.53,260.163 444.484,260.31C452.178,260.452 494.248,260.616 496.345,259.989C500.006,258.893 501.256,252.23 492.92,252.145C485.123,252.065 443.184,251.874 441.251,252.509L441.25,252.509Z" style="fill:rgb(98,181,229);"/>
        </g>
    </g>
</svg>
